<?xml version="1.0" standalone="no"?>
<!DOCTYPE svg PUBLIC "-//W3C//DTD SVG 20010904//EN"
 "http://www.w3.org/TR/2001/REC-SVG-20010904/DTD/svg10.dtd">
<svg version="1.0" xmlns="http://www.w3.org/2000/svg"
 width="1947.000000pt" height="1128.000000pt" viewBox="0 0 1947.000000 1128.000000"
 preserveAspectRatio="xMidYMid meet">
<metadata>
Created by potrace 1.16, written by Peter Selinger 2001-2019
</metadata>
<g transform="translate(0.000000,1128.000000) scale(0.100000,-0.100000)"
fill="#000000" stroke="none">
<path d="M11224 6965 l-194 -395 -165 0 -165 0 0 -255 0 -255 134 0 135 0 3
-492 c4 -470 5 -497 26 -573 39 -141 94 -239 186 -330 93 -92 162 -132 291
-170 220 -64 558 -34 782 70 l75 35 -5 42 c-3 24 -12 153 -18 288 l-12 245
-71 -23 c-125 -42 -268 -21 -332 50 -54 59 -54 58 -54 473 l0 385 240 0 240 0
0 255 0 255 -240 0 -240 0 0 395 0 395 -211 0 -211 0 -194 -395z"/>
<path d="M2331 6584 c-199 -53 -346 -183 -445 -393 l-31 -66 -3 213 -2 212
-435 0 -435 0 0 -1030 0 -1030 435 0 434 0 3 578 c3 660 -1 624 93 711 61 55
142 91 256 115 92 19 259 36 350 36 67 0 69 1 64 23 -2 12 -25 139 -50 282
-25 143 -50 284 -56 313 l-10 52 -57 -1 c-31 0 -81 -7 -111 -15z"/>
<path d="M3645 6584 c-336 -60 -613 -245 -771 -514 -170 -289 -188 -681 -45
-985 127 -272 355 -466 661 -563 153 -48 224 -57 455 -56 227 0 377 19 554 70
102 30 250 84 256 94 5 7 -92 541 -99 547 -2 2 -23 -5 -48 -16 -25 -10 -94
-35 -154 -54 -348 -112 -671 -83 -793 72 -31 39 -77 128 -70 135 2 2 270 39
594 81 325 42 605 79 624 82 l34 6 -6 161 c-4 115 -11 185 -26 243 -97 387
-343 628 -711 697 -103 20 -344 20 -455 0z m380 -508 c28 -13 67 -41 87 -62
39 -41 93 -147 85 -167 -5 -13 -633 -154 -643 -145 -8 9 15 135 37 193 26 70
100 152 164 181 72 34 199 34 270 0z"/>
<path d="M6875 6589 c-275 -29 -503 -77 -700 -148 -353 -127 -584 -258 -782
-445 -107 -101 -175 -202 -208 -310 l-25 -82 0 -1012 0 -1012 495 0 495 0 0
21 c0 30 52 118 92 154 103 95 211 162 458 285 275 137 410 243 468 368 64
136 12 296 -158 491 -93 106 -262 241 -302 241 -16 0 -28 -2 -28 -4 0 -2 43
-46 96 -97 166 -161 247 -288 261 -409 12 -103 -58 -231 -184 -335 -66 -54
-242 -147 -348 -184 -130 -44 -323 -92 -402 -98 l-83 -6 0 601 0 601 33 5 c17
3 86 12 152 21 280 37 560 126 840 265 216 108 336 191 470 325 114 114 162
189 195 305 l23 80 -22 70 c-54 169 -209 259 -518 301 -155 20 -192 21 -318 8z"/>
<path d="M8040 6012 c0 -332 4 -603 11 -668 39 -393 209 -677 480 -803 121
-56 217 -75 374 -74 197 1 337 45 473 148 63 48 161 163 190 222 9 18 19 33
22 33 10 0 1 -143 -16 -254 -37 -235 -120 -351 -299 -418 -55 -20 -75 -22
-230 -20 -93 2 -190 4 -215 5 l-45 2 -32 -300 c-18 -164 -31 -300 -30 -302 2
-1 48 -10 102 -20 76 -13 154 -17 325 -17 250 0 331 12 501 74 368 133 618
450 708 898 43 210 44 230 48 1155 l4 897 -440 0 -441 0 0 -578 c0 -623 -1
-635 -54 -740 -31 -62 -97 -129 -149 -153 -53 -23 -165 -25 -230 -3 -32 11
-62 32 -96 70 -89 98 -85 62 -89 777 l-3 627 -434 0 -435 0 0 -558z"/>
</g>
</svg>
